<svg xmlns="http://www.w3.org/2000/svg" viewBox="282 271 1175 252"><path fill="#333666" d="M803 325c23 0 40 6 53 19s18 29 18 51-6 39-18 50-30 18-53 18h-42V325zm-28 127h28c19 0 33-5 43-15s14-24 14-42-5-32-14-42-24-16-43-16h-28zm180-127v12h-56v51h50v11h-50v53h56v11h-70V325zm24 37c0 5 1 9 4 13s7 6 11 8l15 4 17 4 15 6c6 2 8 5 11 10s4 11 4 18c0 11-4 20-12 28s-18 11-32 11-25-3-33-9-13-14-13-24h15c0 6 3 11 8 15s12 7 22 7 18-3 23-8 9-11 9-19-3-13-8-17-12-6-19-8l-23-5c-8-2-14-6-19-11s-8-14-8-25 4-19 12-26 18-10 31-10 23 3 31 9 12 14 14 24h-16c-1-6-4-11-9-15s-12-6-21-6-15 2-21 6-8 11-8 20zm91 101V325h14v138zm44-18c-13-14-20-30-20-51s7-37 20-50 30-20 50-20c14 0 27 3 38 9s19 16 25 28h-17c-5-8-11-14-19-18s-17-7-27-7c-16 0-30 5-40 16s-16 25-16 42 5 32 16 42 24 16 40 16 28-4 38-14 16-22 17-38h-62v-11h77v11c-2 19-9 35-22 47s-30 17-49 17-36-6-49-19zm221-120h14v138h-14l-77-115v115h-14V325h14l77 116zm41 37c0 5 1 9 4 13s7 6 11 8l15 4 16 4 16 6c5 2 8 5 11 10s4 11 4 18c0 11-4 20-12 28s-19 11-32 11-25-3-34-9-12-14-12-24h15c0 6 3 11 8 15s12 7 22 7 17-3 23-8 9-11 9-19-3-13-8-17-12-6-19-8l-23-5c-8-2-14-6-19-11s-8-14-8-25 4-19 12-26 18-10 31-10 23 3 31 9 12 14 13 24h-15c-1-6-4-11-9-15s-12-6-21-6-16 2-21 6-8 11-8 20zM286 519V329h9v32c6-11 14-19 25-26s23-9 35-9c19 0 36 6 49 20s20 30 20 48-6 36-20 49a70 70 0 0 1-109-15v91zm9-124c0 16 6 30 18 42s26 18 43 18 30-6 42-18 17-26 17-42-6-31-17-43-26-18-43-18-30 6-42 18a59 59 0 0 0-18 43zm185-61c-10 0-19 4-27 11s-12 17-12 28v87h-9V329h9v19c4-6 9-12 17-16s15-6 24-6 18 3 27 9v12c-9-9-18-13-29-13zm46 108a68 68 0 0 1 0-96c14-14 30-21 49-21s36 7 49 21c14 13 21 29 21 48s-7 35-20 49a64 64 0 0 1-48 20h-3c-19 0-35-7-48-21zm109-48c0-16-6-30-17-42s-26-18-43-18-30 6-42 18-18 26-18 43 6 30 18 42 26 18 42 18 31-6 43-18 17-26 17-43zm67-118v8c-11 0-21 4-29 11s-12 18-12 30v77h41v8h-41v50h-9V325a50 50 0 0 1 50-49zm-12 186c-7 0-10-3-10-9s3-9 10-9 10 3 10 9-4 9-10 9z"/></svg>